<svg xmlns="http://www.w3.org/2000/svg" width="80" height="80"
     viewBox="-15 -2 85 85">
    <defs id="SvgjsDefs2369">
        <linearGradient id="SvgjsLinearGradient2374">
            <stop id="SvgjsStop2375" stop-color="#00ff8f" offset="0"></stop>
            <stop id="SvgjsStop2376" stop-color="#00a1ff" offset="1"></stop>
        </linearGradient>
    </defs>
    <g id="SvgjsG2370"
       transform="matrix(0.1721255071817765,0,0,0.1721255071817765,-18.06412918192808,-3.754056891406256)"
       fill="url(#SvgjsLinearGradient2374)"><title xmlns="http://www.w3.org/2000/svg">glyph supplementary
        food</title>
        <path xmlns="http://www.w3.org/2000/svg"
              d="M281.45,82.54a115,115,0,0,1,14.21.91V41.62a19.81,19.81,0,0,0-19.81-19.81H159.66a19.8,19.8,0,0,0-19.8,19.81V83.45a114.8,114.8,0,0,1,14.2-.91Z"></path>
        <path xmlns="http://www.w3.org/2000/svg"
              d="M291.94,347.7a58.27,58.27,0,0,1,20.39-44.27A29.65,29.65,0,0,1,295.88,277V256.5A29.55,29.55,0,0,1,325.4,227h57.45V198.61c0-2.13-.09-4.24-.22-6.34H52.88c-.13,2.1-.22,4.21-.22,6.34V400.52H291.94Zm-33.21-29-56.45,54.05a3.94,3.94,0,0,1-6.38-4.34l19.15-46.84a4.17,4.17,0,0,0-.82-4.44l-33.31-35.24a9.41,9.41,0,0,1,.33-13.27L237.7,214.6a3.94,3.94,0,0,1,6.38,4.34l-19.15,46.84a4.17,4.17,0,0,0,.83,4.44l33.31,35.25A9.42,9.42,0,0,1,258.73,318.74Z"></path>
        <path xmlns="http://www.w3.org/2000/svg"
              d="M55.53,174.68H380a101.5,101.5,0,0,0-98.54-77.47H154.06a101.5,101.5,0,0,0-98.53,77.47Z"></path>
        <path xmlns="http://www.w3.org/2000/svg"
              d="M52.66,450.24a40,40,0,0,0,40,39.95H291.94V418.11H52.66Z"></path>
        <path xmlns="http://www.w3.org/2000/svg"
              d="M447.42,288.89A11.92,11.92,0,0,0,459.34,277V256.5a11.92,11.92,0,0,0-11.92-11.92h-122a11.92,11.92,0,0,0-11.92,11.92V277a11.92,11.92,0,0,0,11.92,11.92h18.24v18.67a40.67,40.67,0,0,0-34.1,40.14V467.18a23,23,0,0,0,23,23H436.33a23,23,0,0,0,23-23V347.7a40.68,40.68,0,0,0-34.11-40.14V288.89ZM409.22,411.5l-11.71,11.21-7.33,7-7.33,7L376,443.33a2.33,2.33,0,0,1-3.76-2.56l9.27-22.66,1.36-3.34.65-1.58a2.48,2.48,0,0,0-.49-2.62l-.16-.16-9.34-9.89-10.11-10.7a5.54,5.54,0,0,1,.19-7.81l19.26-18.44,7.33-7,6.65-6.37a2.32,2.32,0,0,1,3.76,2.55l-3.08,7.53-7.33,17.93-.87,2.13a2.46,2.46,0,0,0,.49,2.61l.38.4,7.33,7.76,11.9,12.59A5.55,5.55,0,0,1,409.22,411.5Z"></path>
    </g>
</svg>